<?xml version="1.0" encoding="utf-8"?>
<!-- Generator: Adobe Illustrator 16.0.0, SVG Export Plug-In . SVG Version: 6.00 Build 0)  -->
<!DOCTYPE svg PUBLIC "-//W3C//DTD SVG 1.1//EN" "http://www.w3.org/Graphics/SVG/1.1/DTD/svg11.dtd">
<svg version="1.1" id="Layer_1" xmlns="http://www.w3.org/2000/svg" xmlns:xlink="http://www.w3.org/1999/xlink" x="0px" y="0px"
	 width="1080px" height="1080px" viewBox="0 0 1080 1080" enable-background="new 0 0 1080 1080" xml:space="preserve">
<g>
	<path fill="none" d="M635.785,395.748c0.692,25.845,3.543,46.477,8.552,61.912c2.191,6.42,5.146,11.576,8.848,15.475
		c3.702,3.911,7.745,6.73,12.146,8.458c4,1.565,8.551,2.425,13.654,2.601c5.096,0.175,9.647-0.609,13.647-2.342
		c3.402-1.728,5.603-4.245,6.603-7.546c1-3.289,1.692-7.367,2.097-12.216c1.404-14.571,3.253-34.997,5.551-61.267
		c2.298-26.275,4.754-54.584,7.35-84.932c3.2-36.417,6.156-69.761,8.857-100.025c2.692-30.256,4.648-51.024,5.85-62.301
		c0.597-8.845-1.201-14.782-5.402-17.816c-4.2-3.034-9.708-3.771-16.505-2.214c-6.797,1.562-13.453,4.942-19.952,10.147
		c-6.498,5.2-11.646,11.708-15.443,19.508c-7.805,16.821-14.505,38.548-20.102,65.161c-5.604,26.625-9.805,54.72-12.602,84.287
		C636.127,342.208,635.084,369.908,635.785,395.748z"/>
	<path fill="none" d="M379.796,218.917c3.764,0.079,6.982-1.359,9.651-4.337c2.666-2.982,4.175-6.771,4.521-11.366
		c0.224-4.622-0.797-8.525-3.064-11.712c-2.264-3.188-5.266-4.946-8.98-5.275c-3.762-0.093-6.98,1.351-9.65,4.328
		c-2.662,2.978-4.176,6.766-4.521,11.37c-0.224,4.613,0.798,8.515,3.069,11.708C373.078,216.82,376.077,218.579,379.796,218.917z"/>
	<path fill="none" d="M714.926,606.563c3.894-3.595,5.551-7.893,4.945-12.899c-0.596-4.999-3.596-9.647-8.997-13.953
		c-5.403-4.298-13.402-7.148-24.004-8.541c-5.2-0.607-10.796-1.105-16.804-1.51l2.402-29.104c1.201-14.399-0.7-23.896-5.699-28.501
		c-4.998-4.596-11.305-4.895-18.898-0.896c-7.604,4-14.699,11.998-21.304,23.995c-4.998,9.604-9.604,21.509-13.803,35.706
		c-3.728,0.334-7.228,0.746-10.543,1.201c-1.646-0.325-3.262-0.657-5.051-0.893c-5.209-0.607-10.804-1.105-16.803-1.51l2.404-29.104
		c1.191-14.399-0.712-23.896-5.701-28.501c-5.008-4.596-11.306-4.895-18.909-0.896c-7.602,4-14.693,11.998-21.292,23.995
		c-5.004,9.604-9.604,21.509-13.805,35.706c-12.721,1.157-22.911,3.035-30.852,5.553c1.561-15.778,3.112-31.529,4.752-47.556
		c0.799-9.998-0.499-17.198-3.896-21.601c-3.404-4.394-8.057-6.306-13.953-5.7c-5.903,0.597-11.954,3.402-18.15,8.402
		c-5.806,0-12.856,2.096-21.153,6.296c-8.3,4.201-16.851,10.506-25.651,18.899c-22.004,22.21-47.15,53.51-75.452,93.913
		c-28.305,40.402-54.654,81.805-79.052,124.207c-12.204,1.395-22.604,3.402-31.203,5.999c-11.199,3.797-18.948,8.752-23.249,14.848
		c-4.301,6.103-6.047,12.154-5.253,18.154c0.201,4.998,1.7,9.25,4.503,12.751c2.802,3.499,6.7,5.349,11.699,5.551l12.602,0.299
		c-16,32.203-25.301,56.504-27.9,72.904c-1.201,11.4,0.553,20.346,5.248,26.853c4.701,6.49,10.453,10.841,17.251,13.05
		c5.796,2.193,11.296,2.746,16.501,1.649c5.2-1.105,9.199-4.052,12.001-8.85c20.198-36.403,39.702-71.299,58.504-104.703
		c29.595,0.394,59.1,0.894,88.501,1.499c-0.403,21.197-0.052,39.946,1.054,56.25c1.096,16.304,3.043,28.845,5.849,37.649
		c3.601,10.2,8.7,17.399,15.3,21.601c6.599,4.2,13.299,6.104,20.1,5.699c5.802,0,10.748-1.253,14.852-3.743
		c4.096-2.508,6.346-6.357,6.75-11.56c3.196-43.797,6.401-85.7,9.603-125.698l0.298-0.299v-0.902
		c4.644-57.242,9.941-116.491,15.799-177.459l23.504-0.448c-5.806,28.001-9.704,51.603-11.699,70.8
		c-3.802,35-5.854,68.511-6.152,100.503c-0.299,32.001,1.951,57.206,6.748,75.604c3.601,11.402,8.705,19.4,15.304,24.004
		c6.6,4.596,13.3,6.797,20.101,6.596c5.797,0,10.747-1.447,14.851-4.351c4.098-2.895,6.342-7.147,6.746-12.751
		c2.202-31.8,3.999-58.995,5.4-81.596c2.202-33.404,4.203-63.108,6-89.111c1.771-25.563,4.13-55.338,7.061-89.224l25.345-0.475
		c-5.806,28.001-9.709,51.603-11.7,70.8c-3.806,35-5.858,68.511-6.156,100.503c-0.299,32.001,1.956,57.206,6.753,75.604
		c3.596,11.402,8.699,19.4,15.304,24.004c6.596,4.596,13.295,6.797,20.101,6.596c5.797,0,10.742-1.447,14.849-4.351
		c4.096-2.895,6.348-7.147,6.752-12.751c2.192-31.8,3.999-58.995,5.402-81.596c2.192-33.404,4.191-63.108,5.998-89.111
		c1.798-25.992,4.201-56.294,7.2-90.899l31.203-0.605C705.173,612.167,711.022,610.169,714.926,606.563z M401.563,755.978
		c-17.602-2.202-36.707-3.701-57.304-4.509c23.597-41.798,48.003-84.296,73.204-127.506
		C410.062,666.374,404.761,710.374,401.563,755.978z"/>
	<path fill="none" d="M707.963,520.847c-0.281,5.802,1.008,10.708,3.857,14.721c2.842,4.008,6.613,6.217,11.287,6.644
		c4.728,0.096,8.778-1.711,12.128-5.451c3.359-3.749,5.254-8.516,5.684-14.29c0.289-5.81-0.999-10.717-3.85-14.721
		c-2.842-4.008-6.621-6.218-11.287-6.635c-4.735-0.113-8.779,1.701-12.139,5.442C710.304,510.297,708.4,515.063,707.963,520.847z"/>
	<path fill="none" d="M551.928,457.66c2.201,6.42,5.147,11.576,8.85,15.475c3.698,3.911,7.75,6.73,12.154,8.458
		c3.999,1.565,8.551,2.425,13.646,2.601c5.104,0.175,9.646-0.609,13.654-2.342c3.395-1.728,5.596-4.245,6.594-7.546
		c1.001-3.289,1.702-7.367,2.106-12.216c1.393-14.571,3.245-34.997,5.551-61.267c2.298-26.275,4.744-54.584,7.349-84.932
		c3.192-36.417,6.147-69.761,8.849-100.025c2.702-30.256,4.647-51.024,5.851-62.301c0.605-8.845-1.203-14.782-5.402-17.816
		c-4.201-3.034-9.699-3.771-16.497-2.214c-6.805,1.562-13.452,4.942-19.952,10.147c-6.498,5.2-11.655,11.708-15.451,19.508
		c-7.797,16.821-14.505,38.548-20.102,65.161c-5.604,26.625-9.805,54.72-12.598,84.287c-2.802,29.572-3.844,57.272-3.147,83.112
		C544.078,421.593,546.928,442.225,551.928,457.66z"/>
	<path fill="none" d="M364.419,437.989c3.998,9.805,9.002,18.004,15,24.599c11.199,12.409,24.499,19.609,39.903,21.601
		c14.399,1.604,28.396-0.991,42.003-7.796c13.598-6.796,24.096-16.505,31.498-29.099c5.801-10.998,7.998-20.207,6.604-27.607
		c-1.403-7.394-4.854-12.902-10.354-16.497c-5.503-3.604-11.602-4.999-18.298-4.201c-6.704,0.798-12.454,3.999-17.251,9.603
		c-10.006,12.401-18.303,18.698-24.901,18.9c-5.403,0-9.405-3-12.002-8.999c-2.999-7.805-4.2-17.602-3.601-29.405
		c10.801-0.396,21.701-2,32.703-4.798c10.998-2.797,21.496-6.902,31.502-12.304c11.199-5.998,21.196-13.646,30.002-22.951
		c8.797-9.296,15.698-20.547,20.697-33.755c4.801-11.594,7.098-23.25,6.901-34.948c-0.201-11.698-4.604-22.652-13.198-32.852
		c-6.406-7.2-14.006-12.401-22.803-15.603c-11.804-3.999-24.503-4.691-38.102-2.096c-18,3.403-33.75,10.647-47.25,21.75
		c-13.503,11.103-24.754,24.652-33.752,40.649c-9.406,17.206-16.154,35.604-20.254,55.206c-4.096,19.6-5.147,38.403-3.148,56.399
		C357.723,416.792,360.42,428.192,364.419,437.989z M437.173,307.931c4.5-7.691,9.797-14.4,15.9-20.1
		c6.1-5.701,12.646-8.744,19.649-9.148c5.2,0.405,7.247,3.201,6.151,8.402c-1.101,5.201-4.051,10.998-8.849,17.399
		c-6.003,7.2-12.805,12.804-20.403,16.803c-7.002,3.798-14.501,6.498-22.498,8.095C429.319,322.788,432.671,315.64,437.173,307.931z
		"/>
	<path fill="none" d="M180.014,602.355c-2.618-23.382-4.929-48.813-6.631-76.479c-0.941-15.931-1.574-31.309-1.981-46.17
		c0.329-8.388,0.653-16.816,0.991-25.051c14.378-0.833,27.262-1.548,38.645-2.153c11.388-0.596,24.274-1.114,38.671-1.552
		c-0.587,32.268,0.04,61.262,1.872,87.006c1.828,25.749,4.92,44.735,9.266,56.951c4.043,10.034,9.454,16.954,16.225,20.758
		c6.773,3.808,13.554,5.466,20.338,4.965c5.783-0.456,10.672-2.025,14.662-4.7c3.981-2.676,6.064-6.525,6.248-11.532
		c3.662-130.694,9.336-261.182,17.023-391.445c0.521-10.84-1.359-18.307-5.644-22.429c-4.284-4.114-9.69-5.28-16.221-3.49
		c-6.524,1.789-12.997,6.033-19.411,12.72c-6.416,6.691-11.683,15.527-15.795,26.521c-6.924,20.118-12.643,46.099-17.146,77.924
		c-4.513,31.84-7.687,65.512-9.524,101.03c-25.721-2.074-51.522-1.535-77.411,1.596c2.604-59.166,5.867-121.577,9.787-187.215
		c0.324-10.832-1.604-18.294-5.788-22.42c-4.188-4.118-9.595-5.284-16.22-3.495c-6.63,1.793-13.204,6.042-19.71,12.738
		c-6.518,6.691-11.832,15.532-15.953,26.525c-7.463,21.547-13.483,49.638-18.065,84.279c-4.057,30.625-6.846,62.599-8.517,95.776
		c-0.744,4.609-1.372,9.485-1.941,14.488c-2.504,2.534-4.439,5.512-5.46,9.208c-1.206,4.354-1.377,8.563-0.496,12.624
		c0.618,2.859,2.048,4.972,3.854,6.739c-1.157,25.74-0.499,52.632,2.201,80.174c0.996,10.169,2.289,19.936,3.715,29.494
		c1.109,9.331,2.473,17.522,4.087,24.582c0.152,0.633,0.351,1.131,0.513,1.744c2.145,10.727,4.473,21.146,7.107,30.906
		c6.925,25.687,14.91,44.42,23.231,56.504c3.574,4.974,7.438,8.279,11.572,9.963c4.152,1.684,8.271,2.122,12.405,1.387
		c3.762-0.685,7.792-2.298,12.142-4.763c4.337-2.474,7.998-5.455,11.024-8.91c2.503-3.148,3.846-6.315,3.998-9.542
		c0.154-3.22-0.1-6.928-0.758-11.155C185.121,643.652,182.641,625.708,180.014,602.355z"/>
	<path fill="none" d="M225.516,634.619c-2.446,2.727-3.832,6.199-4.152,10.427c-0.201,4.235,0.737,7.824,2.82,10.744
		c2.078,2.93,4.822,4.542,8.238,4.851c3.451,0.078,6.402-1.247,8.854-3.974c2.451-2.737,3.833-6.219,4.152-10.437
		c0.207-4.236-0.732-7.823-2.815-10.752c-2.078-2.92-4.827-4.535-8.239-4.841C230.918,630.559,227.967,631.882,225.516,634.619z"/>
	<path fill="none" d="M937.014,688.511c-6.052-0.149-11.225,2.183-15.522,6.973c-4.298,4.787-6.726,10.882-7.278,18.292
		c-0.359,7.429,1.288,13.708,4.937,18.838c3.639,5.14,8.463,7.964,14.444,8.506c6.059,0.133,11.234-2.183,15.531-6.98
		c4.298-4.787,6.718-10.891,7.279-18.284c0.361-7.438-1.289-13.717-4.938-18.854C947.826,691.877,943.004,689.045,937.014,688.511z"
		/>
	<path fill="none" d="M1000.806,529.068c3.736-39.903,4.842-78.144,3.306-114.727c-1.533-36.588-5.551-64.503-12.04-83.749
		c-4.069-10.147-9.383-17.215-15.952-21.188c-6.56-3.959-13.015-5.727-19.364-5.314c-5.683,0.118-10.357,1.513-14.015,4.17
		c-3.657,2.665-5.682,6.503-6.06,11.502c-0.235,16.974-0.483,32.716-0.753,47.252c-0.948,49.87-2.009,93.939-3.166,132.224
		c-1.167,38.284-3.123,86.777-5.869,145.465c-0.464,10.656,1.359,18.085,5.455,22.268c4.105,4.192,9.262,5.508,15.479,3.956
		c6.22-1.552,12.429-5.639,18.629-12.26c6.208-6.622,11.181-15.409,14.926-26.346C990.589,603.397,997.062,568.984,1000.806,529.068
		z"/>
	<path fill="none" d="M870.381,561.47c-6.298-0.799-12.454,0.552-18.453,4.052c-5.998,3.499-10.697,8.242-14.102,14.25
		c-9.796-4.806-19.601-7.901-29.397-9.305c-18.408-2.199-35.701,0.808-51.907,8.998c-10.998,5.807-21.102,15.304-30.301,28.502
		c-9.199,13.208-16.996,28.606-23.397,46.208c-6.402,17.603-10.806,35.746-13.198,54.454c-2.404,18.696-2.404,36.351,0,52.952
		c3.401,21.802,9.646,37.649,18.749,47.551c9.096,9.901,19.802,14.995,32.097,15.295c12.305,0.306,25.101-3.096,38.404-10.201
		c13.305-7.094,25.95-16.645,37.957-28.649c0.597,3.604,1.297,6.805,2.096,9.603c3.604,11.4,8.7,19.452,15.304,24.152
		c6.595,4.7,13.294,6.85,20.101,6.445c5.595,0,10.445-1.245,14.549-3.745c4.096-2.5,6.445-6.252,7.051-11.252
		c4-60.003,8.199-119.507,12.602-178.511c0.799-10.199,1.598-20.398,2.396-30.599c0.605-13.4-1.097-23.249-5.096-29.553
		C881.825,565.819,876.678,562.268,870.381,561.47z M813.822,666.62c-4.394,11.9-9.646,24.503-15.75,37.808
		c-6.096,13.304-12.444,25.397-19.049,36.298c-6.594,10.901-12.602,18.899-17.994,24.004c-5.402,5.096-9.561,5.401-12.455,0.895
		c-2.902-4.498-3.752-15.549-2.551-33.15c0.797-12.795,2.796-26.802,5.998-41.999c3.203-15.198,7.955-29.055,14.252-41.553
		c6.305-12.497,14.348-21.152,24.15-25.949c6.201-2.798,11.851-2.902,16.954-0.298c5.104,2.596,10.051,7.797,14.847,15.592
		C821.032,645.273,818.226,654.729,813.822,666.62z"/>
	<path fill="none" d="M880.632,281.819c-10.506-12.103-23.003-19.75-37.508-22.951c-14.497-3.201-29.1-1.754-43.798,4.35
		c-14.706,6.104-27.651,16.943-38.85,32.545c-13.411,19.803-22.504,42.307-27.301,67.502c-4.807,25.204-5.201,48.305-1.202,69.308
		c3.596,16.005,9.394,29.249,17.399,39.754c7.998,10.498,17.399,18.145,28.204,22.951c10.797,4.797,22.091,6.797,33.896,5.999
		c16.207-1.403,30.354-7.604,42.455-18.601c12.094-10.998,21.995-25.003,29.705-42.008c7.689-16.996,13.048-35.097,16.048-54.295
		c2.999-19.206,3.394-37.702,1.201-55.504C897.884,310.269,891.131,293.922,880.632,281.819z M842.976,391.171
		c-4,17.399-9.351,30.651-16.05,39.754c-6.701,9.104-12.953,13.05-18.75,11.848c-4.008-0.999-7.007-5.744-8.998-14.251
		c-2.009-8.498-2.807-19.048-2.403-31.65c1-19.004,3.999-35.298,8.999-48.9c4.998-13.603,10.654-23.601,16.951-30.002
		c6.298-6.402,11.954-8.445,16.952-6.157c5,2.307,8.104,9.857,9.296,22.652C850.174,347.269,848.176,366.167,842.976,391.171z"/>
	<path fill="#A5C515" d="M839.677,311.812c-4.998-2.289-10.654-0.245-16.952,6.157c-6.297,6.402-11.953,16.399-16.951,30.002
		c-5,13.602-7.999,29.896-8.999,48.9c-0.403,12.603,0.395,23.152,2.403,31.65c1.991,8.507,4.99,13.252,8.998,14.251
		c5.797,1.202,12.049-2.744,18.75-11.848c6.699-9.103,12.05-22.354,16.05-39.754c5.2-25.003,7.198-43.902,5.997-56.707
		C847.78,321.669,844.677,314.118,839.677,311.812z"/>
	<path fill="#A5C515" d="M401.563,755.978c3.197-45.604,8.498-89.604,15.9-132.015c-25.201,43.21-49.607,85.708-73.204,127.506
		C364.856,752.276,383.962,753.775,401.563,755.978z"/>
	<path fill="#A5C515" d="M1049.839,668.733c16.46-74.088,33.272-191.275,28.345-250.766
		c-13.726-165.655-85.131-331.529-660.72-334.976C249.708,81.988,82.717,70.964,27.04,257.218v-0.004
		c-0.005,0.018-0.009,0.036-0.013,0.049c-1.521,5.086-2.982,10.274-4.333,15.659C-19.261,433.657,0.072,672.856,75.551,849.894
		c8.572,22.601,17.899,41.823,28.082,58.135c0.184,0.343,0.363,0.703,0.552,1.045l-0.022-0.185
		c37.225,59.092,85.809,79.885,150.891,86.199c125.808,12.217,352.722-25.845,432.772-47.278
		c78.754-21.091,141.362-38.191,191.351-59.556c51.752,38.323,135.285,34.176,135.285,34.176
		c-32.352-18.969-52.146-47.91-64.188-74.315C999.718,810.272,1030.229,756.968,1049.839,668.733z M651.535,228.349
		c5.597-26.613,12.297-48.34,20.102-65.161c3.798-7.8,8.945-14.309,15.443-19.508c6.499-5.205,13.155-8.585,19.952-10.147
		c6.797-1.557,12.305-0.819,16.505,2.214c4.201,3.035,5.999,8.972,5.402,17.816c-1.201,11.277-3.157,32.045-5.85,62.301
		c-2.701,30.265-5.657,63.608-8.857,100.025c-2.596,30.348-5.052,58.657-7.35,84.932c-2.298,26.27-4.146,46.695-5.551,61.267
		c-0.404,4.85-1.097,8.927-2.097,12.216c-1,3.301-3.2,5.819-6.603,7.546c-4,1.732-8.552,2.517-13.647,2.342
		c-5.104-0.176-9.654-1.036-13.654-2.601c-4.401-1.728-8.444-4.547-12.146-8.458c-3.701-3.899-6.656-9.055-8.848-15.475
		c-5.009-15.435-7.859-36.066-8.552-61.912c-0.701-25.84,0.342-53.54,3.148-83.112C641.73,283.069,645.932,254.975,651.535,228.349z
		 M737.069,507.749c2.851,4.004,4.139,8.911,3.85,14.721c-0.43,5.774-2.324,10.541-5.684,14.29c-3.35,3.74-7.4,5.547-12.128,5.451
		c-4.674-0.427-8.445-2.636-11.287-6.644c-2.85-4.013-4.139-8.919-3.857-14.721c0.438-5.784,2.341-10.55,5.681-14.29
		c3.359-3.741,7.403-5.556,12.139-5.442C730.448,501.531,734.228,503.741,737.069,507.749z M546.529,312.636
		c2.793-29.567,6.994-57.661,12.598-84.287c5.597-26.613,12.305-48.34,20.102-65.161c3.796-7.8,8.953-14.309,15.451-19.508
		c6.5-5.205,13.147-8.585,19.952-10.147c6.798-1.557,12.296-0.819,16.497,2.214c4.199,3.035,6.008,8.972,5.402,17.816
		c-1.203,11.277-3.148,32.045-5.851,62.301c-2.701,30.265-5.656,63.608-8.849,100.025c-2.604,30.348-5.051,58.657-7.349,84.932
		c-2.306,26.27-4.158,46.695-5.551,61.267c-0.404,4.85-1.105,8.927-2.106,12.216c-0.998,3.301-3.199,5.819-6.594,7.546
		c-4.008,1.732-8.551,2.517-13.654,2.342c-5.096-0.176-9.647-1.036-13.646-2.601c-4.404-1.728-8.456-4.547-12.154-8.458
		c-3.702-3.899-6.648-9.055-8.85-15.475c-5-15.435-7.85-36.066-8.546-61.912C542.686,369.908,543.728,342.208,546.529,312.636z
		 M372.272,190.555c2.67-2.977,5.889-4.42,9.65-4.328c3.715,0.329,6.717,2.087,8.98,5.275c2.268,3.188,3.288,7.09,3.064,11.712
		c-0.346,4.595-1.854,8.383-4.521,11.366c-2.669,2.978-5.888,4.416-9.651,4.337c-3.719-0.338-6.718-2.097-8.976-5.284
		c-2.271-3.193-3.293-7.095-3.069-11.708C368.097,197.32,369.61,193.532,372.272,190.555z M359.468,347.387
		c4.1-19.602,10.848-38,20.254-55.206c8.998-15.997,20.249-29.546,33.752-40.649c13.5-11.103,29.25-18.347,47.25-21.75
		c13.599-2.595,26.298-1.903,38.102,2.096c8.797,3.201,16.396,8.402,22.803,15.603c8.595,10.199,12.997,21.153,13.198,32.852
		c0.196,11.699-2.101,23.354-6.901,34.948c-4.999,13.208-11.9,24.459-20.697,33.755c-8.806,9.305-18.803,16.953-30.002,22.951
		c-10.006,5.402-20.504,9.507-31.502,12.304c-11.002,2.798-21.902,4.402-32.703,4.798c-0.6,11.804,0.602,21.6,3.601,29.405
		c2.597,5.998,6.599,8.999,12.002,8.999c6.599-0.203,14.896-6.5,24.901-18.9c4.797-5.604,10.547-8.805,17.251-9.603
		c6.696-0.797,12.795,0.597,18.298,4.201c5.5,3.595,8.95,9.103,10.354,16.497c1.395,7.401-0.803,16.61-6.604,27.607
		c-7.402,12.593-17.9,22.302-31.498,29.099c-13.606,6.805-27.604,9.401-42.003,7.796c-15.404-1.991-28.704-9.192-39.903-21.601
		c-5.998-6.595-11.002-14.794-15-24.599c-3.999-9.797-6.696-21.197-8.1-34.203C354.32,385.791,355.372,366.987,359.468,347.387z
		 M183.68,677.153c-3.026,3.455-6.688,6.437-11.024,8.91c-4.35,2.465-8.38,4.078-12.142,4.763
		c-4.135,0.735-8.253,0.297-12.405-1.387c-4.135-1.684-7.998-4.989-11.572-9.963c-8.321-12.084-16.307-30.817-23.231-56.504
		c-2.635-9.761-4.963-20.18-7.107-30.906c-0.162-0.613-0.36-1.111-0.513-1.744c-1.614-7.06-2.978-15.251-4.087-24.582
		c-1.426-9.559-2.719-19.325-3.715-29.494c-2.7-27.542-3.358-54.434-2.201-80.174c-1.807-1.767-3.236-3.88-3.854-6.739
		c-0.881-4.061-0.71-8.27,0.496-12.624c1.021-3.697,2.956-6.674,5.46-9.208c0.569-5.003,1.197-9.879,1.941-14.488
		c1.671-33.177,4.46-65.151,8.517-95.776c4.582-34.641,10.603-62.731,18.065-84.279c4.121-10.993,9.436-19.833,15.953-26.525
		c6.506-6.695,13.08-10.944,19.71-12.738c6.625-1.79,12.032-0.624,16.22,3.495c4.184,4.126,6.112,11.589,5.788,22.42
		c-3.92,65.638-7.183,128.049-9.787,187.215c25.889-3.131,51.69-3.67,77.411-1.596c1.838-35.518,5.012-69.19,9.524-101.03
		c4.503-31.826,10.222-57.807,17.146-77.924c4.112-10.994,9.379-19.829,15.795-26.521c6.414-6.687,12.887-10.931,19.411-12.72
		c6.53-1.79,11.937-0.624,16.221,3.49c4.284,4.122,6.165,11.589,5.644,22.429c-7.688,130.264-13.361,260.751-17.023,391.445
		c-0.184,5.007-2.267,8.856-6.248,11.532c-3.99,2.675-8.879,4.244-14.662,4.7c-6.784,0.501-13.564-1.157-20.338-4.965
		c-6.771-3.804-12.182-10.724-16.225-20.758c-4.346-12.216-7.438-31.202-9.266-56.951c-1.832-25.744-2.459-54.738-1.872-87.006
		c-14.396,0.438-27.283,0.956-38.671,1.552c-11.383,0.605-24.267,1.319-38.645,2.153c-0.338,8.234-0.662,16.663-0.991,25.051
		c0.407,14.861,1.04,30.239,1.981,46.17c1.702,27.665,4.013,53.097,6.631,76.479c2.627,23.353,5.107,41.297,6.906,54.101
		c0.658,4.228,0.912,7.936,0.758,11.155C187.525,670.838,186.183,674.005,183.68,677.153z M245.428,646.23
		c-0.319,4.218-1.701,7.699-4.152,10.437c-2.451,2.727-5.402,4.052-8.854,3.974c-3.416-0.309-6.16-1.921-8.238-4.851
		c-2.083-2.92-3.021-6.509-2.82-10.744c0.32-4.228,1.706-7.7,4.152-10.427c2.451-2.737,5.402-4.061,8.857-3.981
		c3.412,0.306,6.161,1.921,8.239,4.841C244.695,638.407,245.635,641.994,245.428,646.23z M658.973,704.067
		c-1.807,26.003-3.806,55.707-5.998,89.111c-1.403,22.601-3.21,49.796-5.402,81.596c-0.404,5.604-2.656,9.856-6.752,12.751
		c-4.106,2.903-9.052,4.351-14.849,4.351c-6.806,0.201-13.505-2-20.101-6.596c-6.604-4.604-11.708-12.602-15.304-24.004
		c-4.797-18.398-7.052-43.604-6.753-75.604c0.298-31.992,2.351-65.503,6.156-100.503c1.991-19.197,5.895-42.799,11.7-70.8
		l-25.345,0.475c-2.931,33.886-5.289,63.66-7.061,89.224c-1.797,26.003-3.798,55.707-6,89.111
		c-1.401,22.601-3.198,49.796-5.4,81.596c-0.404,5.604-2.648,9.856-6.746,12.751c-4.104,2.903-9.054,4.351-14.851,4.351
		c-6.801,0.201-13.501-2-20.101-6.596c-6.599-4.604-11.703-12.602-15.304-24.004c-4.797-18.398-7.047-43.604-6.748-75.604
		c0.298-31.992,2.351-65.503,6.152-100.503c1.995-19.197,5.894-42.799,11.699-70.8l-23.504,0.448
		c-5.857,60.968-11.155,120.217-15.799,177.459v0.902l-0.298,0.299c-3.201,39.998-6.406,81.901-9.603,125.698
		c-0.404,5.202-2.654,9.052-6.75,11.56c-4.104,2.49-9.05,3.743-14.852,3.743c-6.801,0.404-13.501-1.499-20.1-5.699
		c-6.6-4.201-11.699-11.4-15.3-21.601c-2.806-8.805-4.753-21.346-5.849-37.649c-1.105-16.304-1.457-35.053-1.054-56.25
		c-29.401-0.605-58.906-1.105-88.501-1.499c-18.802,33.404-38.306,68.3-58.504,104.703c-2.802,4.798-6.801,7.744-12.001,8.85
		c-5.205,1.097-10.705,0.544-16.501-1.649c-6.798-2.209-12.55-6.56-17.251-13.05c-4.695-6.507-6.449-15.452-5.248-26.853
		c2.6-16.4,11.9-40.701,27.9-72.904l-12.602-0.299c-4.999-0.202-8.897-2.052-11.699-5.551c-2.803-3.501-4.302-7.753-4.503-12.751
		c-0.794-6,0.952-12.052,5.253-18.154c4.301-6.096,12.05-11.051,23.249-14.848c8.599-2.597,18.999-4.604,31.203-5.999
		c24.397-42.402,50.747-83.805,79.052-124.207c28.302-40.403,53.448-71.703,75.452-93.913c8.801-8.394,17.352-14.698,25.651-18.899
		c8.297-4.2,15.348-6.296,21.153-6.296c6.196-5,12.247-7.806,18.15-8.402c5.896-0.605,10.549,1.307,13.953,5.7
		c3.397,4.402,4.695,11.603,3.896,21.601c-1.64,16.026-3.191,31.777-4.752,47.556c7.94-2.518,18.131-4.396,30.852-5.553
		c4.201-14.197,8.801-26.103,13.805-35.706c6.599-11.997,13.69-19.995,21.292-23.995c7.604-3.999,13.901-3.7,18.909,0.896
		c4.989,4.604,6.893,14.102,5.701,28.501l-2.404,29.104c5.999,0.404,11.594,0.902,16.803,1.51c1.789,0.235,3.404,0.567,5.051,0.893
		c3.315-0.455,6.815-0.867,10.543-1.201c4.199-14.197,8.805-26.103,13.803-35.706c6.604-11.997,13.7-19.995,21.304-23.995
		c7.594-3.999,13.9-3.7,18.898,0.896c4.999,4.604,6.9,14.102,5.699,28.501l-2.402,29.104c6.008,0.404,11.604,0.902,16.804,1.51
		c10.602,1.393,18.601,4.243,24.004,8.541c5.401,4.306,8.401,8.954,8.997,13.953c0.605,5.007-1.052,9.305-4.945,12.899
		c-3.903,3.605-9.753,5.604-17.55,5.999l-31.203,0.605C663.174,647.773,660.771,678.075,658.973,704.067z M890.929,601.67
		c-0.798,10.2-1.597,20.399-2.396,30.599c-4.402,59.004-8.602,118.508-12.602,178.511c-0.605,5-2.955,8.752-7.051,11.252
		c-4.104,2.5-8.954,3.745-14.549,3.745c-6.807,0.404-13.506-1.745-20.101-6.445c-6.604-4.7-11.699-12.752-15.304-24.152
		c-0.799-2.798-1.499-5.999-2.096-9.603c-12.007,12.005-24.652,21.556-37.957,28.649c-13.304,7.105-26.1,10.507-38.404,10.201
		c-12.295-0.3-23.001-5.394-32.097-15.295c-9.103-9.901-15.348-25.749-18.749-47.551c-2.404-16.602-2.404-34.256,0-52.952
		c2.393-18.708,6.796-36.852,13.198-54.454c6.401-17.602,14.198-33,23.397-46.208c9.199-13.198,19.303-22.695,30.301-28.502
		c16.206-8.19,33.499-11.197,51.907-8.998c9.797,1.403,19.602,4.499,29.397,9.305c3.404-6.008,8.104-10.751,14.102-14.25
		c5.999-3.5,12.155-4.851,18.453-4.052c6.297,0.798,11.444,4.35,15.452,10.647C889.832,578.421,891.534,588.27,890.929,601.67z
		 M899.681,386.373c-3,19.198-8.358,37.299-16.048,54.295c-7.71,17.005-17.611,31.011-29.705,42.008
		c-12.102,10.997-26.248,17.198-42.455,18.601c-11.805,0.798-23.099-1.202-33.896-5.999c-10.805-4.807-20.206-12.454-28.204-22.951
		c-8.006-10.506-13.804-23.749-17.399-39.754c-3.999-21.003-3.604-44.104,1.202-69.308c4.797-25.195,13.89-47.699,27.301-67.502
		c11.198-15.602,24.144-26.441,38.85-32.545c14.698-6.104,29.301-7.551,43.798-4.35c14.505,3.201,27.002,10.849,37.508,22.951
		c10.499,12.103,17.252,28.45,20.25,49.05C903.074,348.671,902.68,367.167,899.681,386.373z M949.125,734.139
		c-4.297,4.798-9.473,7.113-15.531,6.98c-5.981-0.542-10.806-3.366-14.444-8.506c-3.648-5.13-5.296-11.409-4.937-18.838
		c0.553-7.41,2.98-13.505,7.278-18.292c4.298-4.79,9.471-7.122,15.522-6.973c5.99,0.534,10.813,3.366,14.453,8.489
		c3.648,5.138,5.299,11.417,4.938,18.854C955.843,723.248,953.423,729.352,949.125,734.139z M947.826,670.927
		c-6.217,1.552-11.373,0.236-15.479-3.956c-4.096-4.183-5.919-11.611-5.455-22.268c2.746-58.688,4.702-107.181,5.869-145.465
		c1.157-38.285,2.218-82.354,3.166-132.224c0.27-14.536,0.518-30.278,0.753-47.252c0.378-4.999,2.402-8.837,6.06-11.502
		c3.657-2.657,8.332-4.052,14.015-4.17c6.35-0.413,12.805,1.355,19.364,5.314c6.569,3.973,11.883,11.041,15.952,21.188
		c6.489,19.246,10.507,47.161,12.04,83.749c1.536,36.583,0.431,74.824-3.306,114.727c-3.744,39.916-10.217,74.329-19.425,103.253
		c-3.745,10.937-8.718,19.724-14.926,26.346C960.255,665.288,954.046,669.375,947.826,670.927z"/>
	<path fill="#A5C515" d="M807.378,622.675c-5.104-2.604-10.753-2.5-16.954,0.298c-9.803,4.797-17.846,13.452-24.15,25.949
		c-6.297,12.498-11.049,26.354-14.252,41.553c-3.202,15.197-5.201,29.204-5.998,41.999c-1.201,17.602-0.352,28.652,2.551,33.15
		c2.895,4.507,7.053,4.201,12.455-0.895c5.393-5.104,11.4-13.103,17.994-24.004c6.604-10.9,12.953-22.994,19.049-36.298
		c6.104-13.305,11.356-25.907,15.75-37.808c4.403-11.892,7.21-21.347,8.402-28.354C817.429,630.472,812.481,625.271,807.378,622.675
		z"/>
	<path fill="#A5C515" d="M470.025,304.484c4.798-6.402,7.748-12.199,8.849-17.399c1.096-5.201-0.951-7.998-6.151-8.402
		c-7.003,0.405-13.55,3.447-19.649,9.148c-6.104,5.7-11.4,12.409-15.9,20.1c-4.502,7.709-7.854,14.856-10.049,21.452
		c7.997-1.597,15.496-4.297,22.498-8.095C457.221,317.288,464.022,311.685,470.025,304.484z"/>
</g>
</svg>
