<svg id="Artboard" xmlns="http://www.w3.org/2000/svg" width="18" height="18" viewBox="0 0 18 18">
  <path id="Path_45" data-name="Path 45" d="M9,0a9,9,0,1,0,9,9A9,9,0,0,0,9,0Zm4.172,6.121c-.135,1.423-.722,4.876-1.019,6.47-.126.675-.375.9-.615.923-.523.048-.919-.346-1.426-.677-.792-.519-1.24-.842-2.009-1.349-.889-.586-.313-.907.194-1.433.133-.138,2.435-2.233,2.48-2.423a.182.182,0,0,0-.042-.159.208.208,0,0,0-.186-.018q-.119.027-3.8,2.509a1.711,1.711,0,0,1-.977.361,6.385,6.385,0,0,1-1.4-.332c-.563-.183-1.012-.28-.973-.591q.03-.243.669-.5Q8.009,7.189,9.322,6.643c2.5-1.039,3.019-1.22,3.358-1.226C13.1,5.411,13.206,5.761,13.172,6.121Z" fill="#00051b" fill-rule="evenodd"/>
</svg>
