<svg id="download" xmlns="http://www.w3.org/2000/svg" width="18" height="18" viewBox="0 0 18 18">
  <path id="Path_30" data-name="Path 30" d="M114.051,13.211a3.408,3.408,0,0,0,4.79,0h0l2.418-2.4a1.113,1.113,0,0,0,.028-1.583,1.136,1.136,0,0,0-1.6-.028l-.028.028-2.095,2.076L117.55,1.12A1.124,1.124,0,0,0,116.421,0h0a1.124,1.124,0,0,0-1.129,1.12l.016,10.171L113.23,9.23a1.136,1.136,0,0,0-1.6.027,1.113,1.113,0,0,0,0,1.556Z" transform="translate(-107.422)" fill="#00051b"/>
  <path id="Path_31" data-name="Path 31" d="M16.875,309.333a1.122,1.122,0,0,0-1.125,1.12v3.427a.307.307,0,0,1-.307.305H2.557a.307.307,0,0,1-.307-.305v-3.427a1.125,1.125,0,0,0-2.25,0v3.427a2.554,2.554,0,0,0,2.557,2.544H15.443A2.554,2.554,0,0,0,18,313.879v-3.427A1.122,1.122,0,0,0,16.875,309.333Z" transform="translate(0 -298.424)" fill="#00051b"/>
</svg>
