<svg xmlns="http://www.w3.org/2000/svg" width="18" height="17.555" viewBox="0 0 18 17.555">
  <g id="Group_19" data-name="Group 19" transform="translate(-16 -1040)">
    <g id="github" transform="translate(16 1040)">
      <path id="Path_32" data-name="Path 32" d="M9,.3a9,9,0,0,0-2.845,17.54c.45.083.615-.195.615-.433,0-.214-.008-.923-.012-1.675-2.5.544-3.032-1.062-3.032-1.062a2.385,2.385,0,0,0-1-1.317c-.817-.559.061-.547.061-.547a1.891,1.891,0,0,1,1.379.928,1.916,1.916,0,0,0,2.619.748,1.919,1.919,0,0,1,.571-1.2c-2-.227-4.1-1-4.1-4.447A3.482,3.482,0,0,1,4.185,6.41a3.231,3.231,0,0,1,.087-2.382s.756-.241,2.476.922a8.53,8.53,0,0,1,4.507,0c1.717-1.165,2.473-.922,2.473-.922a3.234,3.234,0,0,1,.088,2.382,3.477,3.477,0,0,1,.926,2.416c0,3.457-2.105,4.218-4.109,4.441a2.152,2.152,0,0,1,.61,1.666c0,1.2-.01,2.173-.01,2.47,0,.239.162.52.618.432A9,9,0,0,0,9,.3Z" transform="translate(0 -0.296)" fill="#00051b" fill-rule="evenodd"/>
      <path id="Path_33" data-name="Path 33" d="M4.469,17.478c-.02.046-.092.06-.157.028s-.1-.092-.083-.138.092-.06.158-.028.1.092.082.138Z" transform="translate(-0.996 -4.556)" fill="#00051b"/>
      <path id="Path_34" data-name="Path 34" d="M4.957,17.99c-.044.04-.129.021-.187-.042s-.071-.15-.027-.19.128-.021.188.043.072.148.026.189Z" transform="translate(-1.18 -4.66)" fill="#00051b"/>
      <path id="Path_35" data-name="Path 35" d="M5.428,18.662c-.057.039-.148,0-.2-.079s-.057-.18,0-.219.147,0,.2.077.056.18,0,.22Z" transform="translate(-1.297 -4.815)" fill="#00051b"/>
      <path id="Path_36" data-name="Path 36" d="M6.055,19.333c-.05.056-.157.04-.235-.035a.176.176,0,0,1-.052-.235c.051-.056.159-.04.238.035s.1.18.05.235Z" transform="translate(-1.437 -5.046)" fill="#00051b"/>
      <path id="Path_37" data-name="Path 37" d="M6.929,19.752c-.022.072-.125.1-.229.074s-.172-.115-.151-.188.125-.106.23-.073.171.115.15.187Z" transform="translate(-1.638 -5.169)" fill="#00051b"/>
      <path id="Path_38" data-name="Path 38" d="M7.907,19.845c0,.076-.086.138-.195.14s-.2-.059-.2-.133.086-.138.2-.141.2.059.2.134Z" transform="translate(-1.881 -5.207)" fill="#00051b"/>
      <path id="Path_39" data-name="Path 39" d="M8.822,19.7c.013.073-.063.15-.171.17s-.2-.026-.219-.1.064-.151.17-.171.206.025.219.1Z" transform="translate(-2.111 -5.179)" fill="#00051b"/>
    </g>
  </g>
</svg>
