<svg id="instagram" xmlns="http://www.w3.org/2000/svg" width="18" height="18" viewBox="0 0 18 18">
  <path id="Path_40" data-name="Path 40" d="M9,1.622c2.4,0,2.688.009,3.637.052a3.97,3.97,0,0,1,2.706.983,3.945,3.945,0,0,1,.983,2.706c.043.949.052,1.234.052,3.637s-.009,2.688-.052,3.637a3.99,3.99,0,0,1-.983,2.706,3.943,3.943,0,0,1-2.706.983c-.949.043-1.234.052-3.637.052s-2.688-.009-3.637-.052a4.018,4.018,0,0,1-2.706-.983,3.966,3.966,0,0,1-.983-2.706C1.63,11.688,1.621,11.4,1.621,9s.009-2.688.053-3.637a4,4,0,0,1,.983-2.706,3.953,3.953,0,0,1,2.706-.983C6.312,1.631,6.6,1.622,9,1.622M9,0C6.556,0,6.249.01,5.289.054A5.562,5.562,0,0,0,1.51,1.51,5.553,5.553,0,0,0,.054,5.289C.01,6.249,0,6.556,0,9s.011,2.751.054,3.711A5.568,5.568,0,0,0,1.51,16.49a5.558,5.558,0,0,0,3.779,1.456C6.249,17.99,6.556,18,9,18s2.751-.01,3.711-.054A5.566,5.566,0,0,0,16.49,16.49a5.551,5.551,0,0,0,1.456-3.779C17.99,11.751,18,11.444,18,9s-.01-2.751-.054-3.711A5.564,5.564,0,0,0,16.49,1.51,5.563,5.563,0,0,0,12.711.054C11.751.01,11.444,0,9,0Z" transform="translate(0 0)" fill="#00051b"/>
  <path id="Path_41" data-name="Path 41" d="M10.459,5.838a4.621,4.621,0,1,0,4.622,4.621A4.622,4.622,0,0,0,10.459,5.838Zm0,7.621a3,3,0,1,1,3-3A3,3,0,0,1,10.459,13.459Z" transform="translate(-1.459 -1.459)" fill="#00051b"/>
  <circle id="Ellipse_14" data-name="Ellipse 14" cx="1.08" cy="1.08" r="1.08" transform="translate(12.724 3.115)" fill="#00051b"/>
</svg>
