<svg xmlns="http://www.w3.org/2000/svg" width="18" height="17.999" viewBox="0 0 18 17.999">
  <g id="linkedin" transform="translate(22.619 42.701)">
    <path id="Path_2520" d="M15.337,17.119H12.67V12.942c0-1-.018-2.278-1.387-2.278-1.389,0-1.6,1.085-1.6,2.206v4.249H7.014V8.529H9.575V9.7h.035a2.807,2.807,0,0,1,2.526-1.387c2.7,0,3.2,1.778,3.2,4.091ZM4,7.355A1.548,1.548,0,1,1,5.553,5.807,1.548,1.548,0,0,1,4,7.355H4m1.333,9.764H2.668V8.529h2.67ZM16.667,1.783H1.328A1.314,1.314,0,0,0,0,3.081v15.4a1.314,1.314,0,0,0,1.328,1.3H16.667A1.317,1.317,0,0,0,18,18.483V3.08a1.317,1.317,0,0,0-1.333-1.3" transform="translate(-22.619 -44.483)" fill="#00051b"/>
  </g>
</svg>
