<svg xmlns="http://www.w3.org/2000/svg" width="18" height="10.222" viewBox="0 0 18 10.222">
  <g id="medium" transform="translate(0 -5.185)">
    <g id="Group_20" data-name="Group 20" transform="translate(0 5.185)">
      <path id="Path_42" data-name="Path 42" d="M10.153,10.3A5.076,5.076,0,1,1,5.077,5.185,5.094,5.094,0,0,1,10.153,10.3" transform="translate(0 -5.185)" fill="#00051b"/>
      <path id="Path_43" data-name="Path 43" d="M19.271,10.4c0,2.657-1.136,4.811-2.538,4.811s-2.538-2.154-2.538-4.811,1.136-4.811,2.538-4.811,2.538,2.154,2.538,4.811" transform="translate(-3.549 -5.285)" fill="#00051b"/>
      <path id="Path_44" data-name="Path 44" d="M23.4,10.563c0,2.381-.4,4.311-.892,4.311s-.893-1.93-.893-4.311.4-4.311.893-4.311.892,1.931.892,4.311" transform="translate(-5.405 -5.452)" fill="#00051b"/>
    </g>
  </g>
</svg>
