<svg xmlns="http://www.w3.org/2000/svg" width="18" height="14.625" viewBox="0 0 18 14.625">
  <path id="Logo_00000038394049246713568260000012923108920998390947_" d="M16.157,5.89c.01.158.01.317.01.477A10.436,10.436,0,0,1,5.66,16.875v0A10.452,10.452,0,0,1,0,15.217a7.409,7.409,0,0,0,5.465-1.531,3.7,3.7,0,0,1-3.45-2.565,3.7,3.7,0,0,0,1.667-.063A3.693,3.693,0,0,1,.72,7.438V7.391A3.661,3.661,0,0,0,2.4,7.853a3.7,3.7,0,0,1-1.144-4.93A10.486,10.486,0,0,0,8.863,6.782a3.7,3.7,0,0,1,6.293-3.368,7.4,7.4,0,0,0,2.345-.9,3.71,3.71,0,0,1-1.624,2.043A7.418,7.418,0,0,0,18,3.979,7.506,7.506,0,0,1,16.157,5.89Z" transform="translate(0 -2.25)" fill="#00051b"/>
</svg>
