<svg xmlns="http://www.w3.org/2000/svg" width="17.914" height="18" viewBox="0 0 17.914 18">
  <g id="WA_Logo" transform="translate(-0.057)">
    <g id="Group_21" data-name="Group 21" transform="translate(0.057)">
      <path id="Path_46" data-name="Path 46" d="M15.361,2.616A8.922,8.922,0,0,0,1.323,13.379L.057,18l4.728-1.24a8.91,8.91,0,0,0,4.262,1.086h0a8.924,8.924,0,0,0,6.31-15.23ZM9.052,16.339h0a7.394,7.394,0,0,1-3.773-1.033L5,15.145,2.2,15.88l.749-2.736-.176-.281a7.413,7.413,0,1,1,6.28,3.475Zm4.066-5.552c-.223-.112-1.319-.651-1.523-.725s-.352-.112-.5.111-.575.725-.706.875-.26.167-.483.056A6.083,6.083,0,0,1,8.112,10a6.709,6.709,0,0,1-1.24-1.544c-.13-.224-.013-.344.1-.454s.223-.26.334-.391a1.481,1.481,0,0,0,.224-.371.41.41,0,0,0-.019-.391c-.056-.111-.5-1.208-.687-1.655s-.365-.376-.5-.383S6.043,4.8,5.893,4.8a.817.817,0,0,0-.594.279,2.5,2.5,0,0,0-.78,1.859,4.337,4.337,0,0,0,.91,2.306,9.93,9.93,0,0,0,3.807,3.365,12.9,12.9,0,0,0,1.271.469,3.063,3.063,0,0,0,1.4.089,2.3,2.3,0,0,0,1.5-1.06,1.854,1.854,0,0,0,.13-1.06C13.489,10.954,13.341,10.9,13.118,10.786Z" transform="translate(-0.057)" fill="#00051b" fill-rule="evenodd"/>
    </g>
  </g>
</svg>
